<svg width="1728" height="629" viewBox="0 0 1728 629" fill="none" xmlns="http://www.w3.org/2000/svg">
<g clip-path="url(#clip0_387_50)">
<rect width="1728" height="629" fill="white"/>
<path d="M-72 568.244C87 562.744 132.5 472.244 291.5 466.744C450.5 461.244 599.5 546.744 915 541.244C1230.5 535.744 1269 340.744 1798 340.744" stroke="black"/>
<path d="M-53 357.744C49 355.744 103 420.181 248 416.244C384 412.552 520.5 301.356 675.5 298.744C788 298.744 931.5 414.744 1051 435.244C1170.5 455.743 1321 456.744 1459.5 399.744C1598 342.744 1744 314.744 1801 339.244" stroke="black"/>
<path d="M-43.5 223.244C107 220.744 217.5 156.744 334.5 152.744C451.5 148.744 692.5 275.744 854.5 269.744C952.194 266.125 1060.43 227.449 1259 249.244C1389.7 263.59 1556.15 341.831 1796.5 340.244" stroke="black"/>
<path d="M-45.5 103.744C125 103.744 247 123.244 313.5 120.744C380 118.244 648 100.744 743.5 103.244C839 105.744 955 178.244 1186 186.244C1318.5 194.244 1573 356.244 1754.5 340.744" stroke="black"/>
</g>
<defs>
<clipPath id="clip0_387_50">
<rect width="1728" height="629" fill="white"/>
</clipPath>
</defs>
</svg>
