<svg width="1728" height="467" viewBox="0 0 1728 467" fill="none" xmlns="http://www.w3.org/2000/svg">
<path d="M-72 466.244C87 460.744 132.5 370.244 291.5 364.744C450.5 359.244 599.5 444.744 915 439.244C1230.5 433.744 1269 238.744 1798 238.744" stroke="black"/>
<path d="M-53 255.744C49 253.744 103 318.181 248 314.244C384 310.552 520.5 199.356 675.5 196.744C788 196.744 931.5 312.744 1051 333.244C1170.5 353.743 1321 354.744 1459.5 297.744C1598 240.744 1744 212.744 1801 237.244" stroke="black"/>
<path d="M-43.5 121.244C107 118.744 217.5 54.7437 334.5 50.7437C451.5 46.7437 692.5 173.744 854.5 167.744C952.194 164.125 1060.43 125.449 1259 147.244C1389.7 161.59 1556.15 239.831 1796.5 238.244" stroke="black"/>
<path d="M-45.5 1.74371C125 1.74371 247 21.2437 313.5 18.7437C380 16.2437 648 -1.25629 743.5 1.24371C839 3.74371 955 76.2437 1186 84.2437C1318.5 92.2437 1573 254.244 1754.5 238.744" stroke="black"/>
</svg>
